<?xml version="1.0" encoding="UTF-8"?>
<svg id="Layer_1" data-name="Layer 1" xmlns="http://www.w3.org/2000/svg" viewBox="0 0 1732.1 803.86">
  <defs>
    <style>
      .cls-1 {
        fill: #a68468;
      }

      .cls-1, .cls-2 {
        stroke-width: 0px;
      }

      .cls-2 {
        fill: #fff;
      }
    </style>
  </defs>
  <g>
    <path class="cls-2" d="m1139.12,36.24c1.34.07,2.67.15,4.04.22-.37,1.49-.7,2.98-.99,4.49-.04,1.17-.06,2.35-.08,3.52-1.06-.03-3.19-.11-4.25-.14.51-2.69.98-5.38,1.28-8.09Z"/>
    <path class="cls-2" d="m1198.96,56.72c-.08-1.51-.13-3-.19-4.5,2.68.08,5.37.12,8.06.16.06,1.36.13,2.72.21,4.09l.84-.08c-.2,1.8-.46,3.76.58,5.38l.65-6.11c-.78,3.2,2.2,3.99,3.97,5.38,2.4,1.36,4.05,3.62,5.61,5.83,2.03.74,3.95,1.78,5.38,3.46,2.18,2.62,5.88,3.6,7.47,6.76,1.86,1.56,3.95,2.83,6.18,3.82,1.12,1.96,2.59,3.91,2.5,6.3-1.45,1.82-3.54.39-5.31.09-.04-1.28-.06-2.55-.06-3.83-2.23-.01-4.46-.03-6.67-.03-1.4-1.24-2.78-2.48-4.15-3.72-3.64-1.09-6.84-3.14-9.61-5.69-3.73-1.91-5.63-5.78-8.33-8.78-.78.03-2.35.09-3.13.11,0-.94.04-2.82.06-3.75-.61.59-1.81,1.79-2.42,2.38.21-2.64.37-5.29.46-7.94-.53.17-1.58.5-2.1.67Z"/>
    <path class="cls-2" d="m1147.02,60.25c.59.02,1.79.06,2.38.08-.33.78-1,2.34-1.33,3.12.97-.05,2.9-.16,3.86-.21.02.52.06,1.56.07,2.08-1.68.03-3.35.07-5,.11.01-1.73.02-3.46.02-5.18Z"/>
    <path class="cls-2" d="m1155.11,66.35c.59.02,1.79.07,2.39.09-.43.45-1.27,1.35-1.7,1.79,3.66,0,7.29.54,10.82,1.49.15.41.46,1.23.62,1.64-4.11,0-8.21.06-12.3-.03.04-1.66.1-3.32.17-4.98Z"/>
    <path class="cls-2" d="m1247.3,171.87c1.72-.47,3.47-.86,5.26-1.16,2.31.44,4.64.77,6.97,1.25,1.66.36,3.33.71,5.02,1.12,10.59,1.03,21.05,3.21,31.7,3.75-7.48,1.83-15.2,1.42-22.79,2.37-6.25.69-12.47-.31-18.63-1.17.08-.92.17-1.84.28-2.75-.39-.02-1.18-.06-1.58-.07-2.3-.68-4.92-1.07-6.23-3.34Z"/>
    <path class="cls-2" d="m1352.8,213.4c4.27-1.71,8.76-.68,13.08.36-4.15,1.79-8.38,3.53-12.94,3.82-.03-1.05-.11-3.13-.14-4.18Z"/>
    <path class="cls-2" d="m1332.72,219.4c7.44-1.8,15.24-3.09,22.72-.66-4.92,1.23-9.83,2.45-14.82,3.28-4.73-.96-9.57-.65-14.34-1.12,2.3-.27,4.67-.45,7.02-.6l-.58-.9Z"/>
    <path class="cls-2" d="m1443.97,293.59c1.94-.31,3.93-.17,5.91-.2,0,.98.02,1.96.07,2.94-2.53.03-5.05.03-7.56-.01.49-.93.98-1.86,1.58-2.73Z"/>
    <path class="cls-2" d="m1213.78,328.59c3.08-.37,6.13-1,9.2-1.51-.04,2.11-.03,4.24.01,6.36l-1.09-.2c-.04.78-.1,2.33-.14,3.1,1.66.2,3.29.41,4.98.68-5.37.59-10.77.16-16.14.56-4.5,1.42-9.27.79-13.89.67-.82-.39-2.47-1.15-3.3-1.53.78-.17,2.34-.49,3.11-.65,1.91-.55,3.88-.7,5.88-.68-.1-1.74.32-3.44.67-5.13.78.08,2.35.23,3.14.31l-.42-1.23c2.84.05,5.68.07,8.54.13l-.55-.88Z"/>
    <path class="cls-2" d="m1285.55,337.96c4.69-1.44,9.6-2.2,14.49-1.33-4.49,2.4-9.64,1.86-14.49,1.33Z"/>
    <path class="cls-2" d="m1306.85,338.69c.02-1.21.07-2.42.13-3.62,2.27.59,4.53,1.18,6.83,1.78-2.23,1.01-4.53,1.69-6.96,1.84Z"/>
    <path class="cls-2" d="m1344.03,358.86c4.83-1.13,9.83-.85,14.39,1.29-4.88.53-9.77.42-14.39-1.29Z"/>
    <path class="cls-2" d="m176.95,513.99c1.52-.76,3.05-1.52,4.59-2.23-1.13,2.43-2.01,4.97-3.09,7.42-.37.08-1.1.24-1.46.32,0-1.84-.01-3.68-.04-5.51Z"/>
    <path class="cls-2" d="m1169.9,529.57c.99-1.53,2.79-2.17,4.23-3.17.1,2.69-.02,5.38-.25,8.06-.67.08-2.01.23-2.68.31-.5-1.71-1.77-3.36-1.3-5.2Z"/>
  </g>
  <g>
    <path class="cls-1" d="m1123.93.08c.52-.02,1.55-.06,2.07-.08,1.11,3.83,1.24,7.81,1.06,11.76-.72-.13-2.18-.38-2.91-.51-.38-3.71-.43-7.44-.22-11.17Z"/>
    <path class="cls-1" d="m1179.73,5.16c.68-.02,2.05-.04,2.73-.05.2,3.84,2,8.57-1.22,11.65-1.09-3.78-1.29-7.71-1.51-11.6Z"/>
    <path class="cls-1" d="m1129.04,8.02l4.28,1.32c.92,4.27,4.05,7.43,6.19,11.1,2.83-.15,5.65-.59,8.45-1.15v-3.21c.38.03,1.13.1,1.51.14.87,1.64,1.77,3.28,2.67,4.92,1.83.52,3.66,1.07,5.52,1.59.47,4.05,1.68,7.96,2.64,11.91l.59-.48c.43,1.11.86,2.23,1.32,3.35.68-.06,2.06-.16,2.75-.22.02.47.05,1.41.07,1.88,2.26,2.86,4.48,5.76,6.89,8.51.07.64.23,1.91.31,2.55,2.72-.02,5.43,0,8.16.07,2.51,2.25,5.04,4.72,8.24,5.93,2.45-.28,4.85-.88,7.33-1.13,0-2.63.04-5.27.16-7.9-1.62-1.25-3.33-2.36-5.08-3.38l-.06-.8-2,.76c-.02-2.55-.06-5.1-.08-7.64.44.07,1.32.22,1.76.29.32-.61.95-1.83,1.27-2.44,0-.92.03-2.74.04-3.65-.78.02-2.34.05-3.12.06-2.83-5.09-4.26-11.19-1.58-16.67l1.42-1.25c1.38,4.52,3.3,8.92,6.73,12.28,2.17,1.3,2.93,3.79,4.36,5.75,1.33,1.37,3.06,2.25,4.62,3.37,3.58,2.38,5.8,6.31,9.53,8.51,2.68,1.62,4.99,3.75,7.12,6.03,2.05,0,4.11-.03,6.19-.06-.12.52-.38,1.55-.51,2.06,1.44-.05,2.88-.11,4.34-.18l-.11,1.11c2.44.01,4.91.04,7.38.11,1.39,3.42,3.77,6.23,6.08,9.06,2.27-.04,4.54-.07,6.83-.07l-.39-1.1c1.04.02,2.1.04,3.18.06-.04.78-.1,2.36-.14,3.15.54-.1,1.63-.3,2.17-.39-.11.61-.33,1.85-.44,2.46l1.62-.53-.66,1.46c1.27-.06,2.56-.12,3.86-.17,1.36,2.02,2.76,4.02,4.22,5.98.08,1.53.19,3.05.32,4.57,7.89,4.52,15.43,9.69,23.74,13.46,3.39,1.99,6.77,4.06,10.73,4.78,2.56.56,5.13,1.11,7.74,1.48-.12.4-.37,1.21-.49,1.61,1.77.08,3.56.15,5.36.23.42-1.81.87-3.61,1.32-5.41.43.31,1.3.94,1.73,1.25l-.2-2.06c1.25.04,2.54.09,3.83.13.03,1.37.09,2.73.17,4.1,1.28.75,2.57,1.52,3.88,2.29l-.07.63c9.33-.42,19.36,1.53,26.49,7.93,11.32,9.86,26.59,13.83,37.31,24.48,3.49,4.06,8.39,6.42,12.78,9.36,6.81,4.26,13.66,8.47,20.54,12.64.05.6.17,1.81.23,2.42,2.64.67,5.36,1.12,8.11,1.16-.04,1.69-.08,3.38-.12,5.08,1.55-.19,3.11-.37,4.69-.56-.71-.19-2.12-.55-2.83-.74.03-1.64.1-3.28.17-4.92-1.75.06-3.48.14-5.18.22-.03-1.68-.01-3.35,0-5.03-3.07-3.06-6.21-6.1-8.62-9.72-1.4-2.22-3.61-3.69-5.88-4.87-1.38-2.62-2.67-5.28-3.87-7.98-1.08-.82-2.14-1.64-3.18-2.46-1.51-4.45-4.59-8.37-4.78-13.21-.42.12-1.25.36-1.67.48-.19-5.42.09-10.83.15-16.25-.24,0-.71-.02-.95-.02-.24-4.07-.94-8.09-1.38-12.13l1.08.07c.51-4.43,1.14-8.86,1.08-13.33,1.44.1,2.89.2,4.35.29-.15-.45-.45-1.36-.6-1.82,1.09-.14,3.29-.42,4.39-.56.07,2.19.2,4.37.4,6.55.34-5.71,1.14-11.59-.42-17.18.97-.13,2.91-.38,3.88-.5-.92-.09-2.75-.26-3.66-.35.02-1.8,0-3.6-.07-5.39.48.09,1.43.27,1.91.36-.71-3.2-1.38-6.45-1.19-9.75.6-.31,1.78-.93,2.38-1.25-.62.02-1.85.06-2.47.08.02-1.68.05-3.36.11-5.03,3.42-.29,6.81-.9,10.23-1.4-.04.68-.12,2.03-.16,2.71.87-.61,1.74-1.22,2.65-1.83.43-1.58.9-3.14,1.39-4.71,1.67.04,3.36.08,5.06.09,1.55,1.91,3.27,3.8,3.4,6.46.73-1.57,1.41-3.17,2.06-4.79,1.6-6.43,4.65-12.33,6.98-18.5,1.88-.05,3.8-.1,5.72-.14-.07-.74-.22-2.23-.3-2.97,1.56-.36,3.12-.7,4.73-1.03-.06,2.1.2,4.25-.22,6.32-1.09,1.72-2.83,2.86-4.34,4.16-.5,3.16-1.1,6.41,0,9.54.65.09,1.96.27,2.61.36-.15,5.96,1.04,11.82,1.4,17.75l.69-.36c.38,2.11.85,4.22,1.28,6.33l1.26-.22c-.15.56-.46,1.68-.61,2.24,1.86-.25,4.1.36,5.75-.67,1.33-3.74,1.18-7.79,1.97-11.64,1.74-3.95,3.31-7.97,5.12-11.9,1.76.08,3.54.15,5.34.22.08-1.99.2-3.99.32-5.98.84-.05,1.7-.11,2.57-.16-.47,3.54-.81,7.12-1.8,10.56-.77-.49-2.29-1.45-3.05-1.93,1.49,3.88.84,7.99.7,12.01.1,13.77,3.58,27.3,8.69,40.02,2.17,4.61,4.19,9.3,5.62,14.2,1.66,5.98,5.43,11.07,7.08,17.05,1.81,6.75,4.27,13.46,4.25,20.54.63,6.92-.11,14.11,2.37,20.74,1.19,3.28,2.74,6.72,5.71,8.78,8.61.16,16.79-3.14,25.28-4.23,12.85-2.67,26.68.67,37.17,8.46,4.13,3.53,6.88,8.5,11.61,11.38,5.66,3.54,9.97,8.72,14.19,13.8,1.91,2.01,1.12,4.99,1.32,7.48-.24-.47-.73-1.4-.98-1.87-5.62.79-10.21-2.93-15.45-3.93-7.77.12-15.75,1.81-22.34,6.08-7.6,3.66-13.64,9.78-18.23,16.74-7.17,11.26-15.24,21.99-24.83,31.3-5.61,6.41-13.21,10.78-18.23,17.73-1.68,2.31-3.84,4.19-6.27,5.66-2.26,2.16-4.9,3.85-7.84,4.87-3.37,4.28-8.82,5.93-12.38,9.97-2.86,3.36-7.94,3.97-9.86,8.24-2.25.75-4.47,1.49-6.68,2.27.01.68.05,2.02.06,2.69-3.93,1.19-7.91,2.38-11.34,4.69-3.22,2.16-7.21,2.72-10.43,4.84-6.31,4.12-11.1,10.32-18.2,13.25l.06.9c-.5-.16-1.49-.48-1.99-.64v1.49c-.76-.07-2.29-.2-3.06-.27l.11,1.09c-1.66-.02-3.25-.02-4.87,0-.77.58-1.52,1.16-2.26,1.75-4.58.35-8.25,3.17-11.75,5.84,2.63,1.1,5.33,2.49,8.29,2.13,8.96-.87,17.97-.35,26.97-.47,29.02,0,58.05-.15,87.07-.48,28.78.12,57.54-.9,86.3-1.9,22.88-.19,45.73-1.35,68.6-2.08,22.06-.05,44-2.34,65.99-3.65,1.18.39,3.55,1.18,4.73,1.57-2.81.63-5.6,1.24-8.37,1.83,2.33.51,7,1.53,9.33,2.04-15.86,1.23-31.76,1.8-47.64,2.63-21.82,1.58-43.67,2.6-65.47,4.47-7.18.37-14.36.79-21.53,1.17-30.39.06-60.61,4.44-91.02,4.28-6.72-.21-13.24,2.05-19.97,1.7-10.37-.17-20.64,1.54-30.99,1.54-4.8.13-9.58.59-14.36.84-1.1.95-2.19,1.9-3.24,2.86.04.64.12,1.91.16,2.55-5.02,4.88-12.38,6.18-17.24,11.24-5.29,4.93-8.78,11.32-12.61,17.36-11.15,18.06-20.34,37.28-28.17,56.99-8.96,19.86-15.5,40.68-22.62,61.23-2.23,6.43-3.19,13.28-3.29,20.07-.13,2.88,1.12,5.52,2.9,7.72,3.8-1.48,8.23-1.92,11.29-4.88,3.86-3.83,9.94-5.14,12.16-10.54,4.41-2.73,7.14-7.3,9.87-11.56,3.73-5.72,4.16-12.75,7.04-18.83,4.82-10.77,8.28-22.06,13.26-32.75,2.68-8.29,7.31-15.75,10.01-24.02,2.25-5.77,5.76-10.94,8.19-16.63,6.8-15.15,15.65-29.29,25.51-42.62,3.38-4.3,7.28-8.52,12.44-10.63,7.83-3.19,16.07-6.53,24.72-5.49,2.67-.02,4.71,1.87,6.75,3.33-8.38,3.93-18.01,6.2-24.54,13.18-4.94,5.57-9.29,11.68-12.73,18.29-6.15,10.5-11.66,21.36-16.59,32.48-4.83,8.93-8.14,18.55-11.92,27.95-3.68,8.72-7.4,17.44-10.91,26.23-3.95,10.98-7.16,22.2-10.55,33.36-1.62,6.83-2.89,14.39-.17,21.1,1.24,3.49,5.35,1.51,7.78.6,4.81-1.44,7.74-5.68,10.73-9.41.97-.21,1.97-.41,2.99-.61,2.49-6.3,9.36-9.71,11.13-16.41,2.95-10.54,8.4-20.22,14.86-28.99,5.14-7.71,12.16-13.91,19.13-19.93,6.2-4.84,12.89-9.28,20.45-11.68,5.28-2.18,11.09-1.88,16.67-2.6,5.7-.62,12.66,1.79,14.92,7.48.8,4.38,1.44,8.88,3.71,12.81.81-.4,2.44-1.2,3.25-1.6-.19.8-.57,2.42-.76,3.23,1.05-.02,3.15-.05,4.2-.07-1.76,1.21-3.39,2.48-5.13,3.69-6.67.06-11.41,5.05-16.05,9.12-5.91,5.45-13.16,9.07-20.21,12.79-8.55,5-18.73,7.41-28.6,6.47-4.46,4.29-4.84,10.68-5.6,16.44-.58,6.12.74,12.67,4.63,17.56,4.78,4.21,11.71,4.8,17.74,3.58,4.23-1.1,8.65-2.07,12.26-4.69,2.37-1.65,5.47-2.15,7.45-4.37,3.7-4.17,9.69-6.48,11.16-12.36,1.08-.11,2.19-.21,3.31-.31.53-.56,1.07-1.11,1.64-1.66.71-1.13,1.41-2.31,2.35-3.29,1.67-.2,3.38-.11,5.1-.09.64.64,1.31,1.3,2,1.96-.01,2.15-.04,4.3-.04,6.46.95-.16,1.92-.32,2.92-.47.09-1.86.21-3.71.33-5.56,1.6-3.43,3.18-6.91,4.09-10.59.89-3.17,1.06-6.72,3.31-9.32,3.05-7.8,4.95-16.2,4.57-24.61-3.22-2.15-7.08-2.05-10.76-1.74.72-1.84,1.52-3.65,2.48-5.38.05-.67.15-1.99.21-2.65,6.53-3.82,11.48-10.52,19.38-11.75,2.25.19,4.65.52,6.65,1.67,1.08,1.31,1.9,2.82,2.8,4.28.31,5.65.24,11.31.09,16.96l-1.34-.15c.24.82.71,2.45.94,3.27-.57-.12-1.71-.34-2.28-.46-.47,2.81-1.09,5.59-1.61,8.39,1.74.4,3.51.8,5.29,1.22-.01-3.16-.02-6.32-.07-9.48,2.28.08,4.57.14,6.88.22.42-.4,1.25-1.21,1.66-1.61.61-1.93,1.15-4,2.67-5.46,4.94-5.02,10.12-9.8,15.32-14.55,4.15-3.42,9.49-6.2,15.03-5.29,2.85.3,6.29.6,7.86,3.42,2.17,2.46,1.97,5.9,1.06,8.83-1.38,4.54-1.41,9.9-5.18,13.28-.11,1.4-.18,2.8-.22,4.21-2.88.06-5.74.1-8.6.1-.82-1.45-1.6-2.89-2.4-4.32-.01-.67-.03-2-.04-2.67-1.48-1.15-2.82-2.55-4.52-3.31-3.28,1.15-6.5,2.52-9.59,4.07-3.39,2.2-6.04,5.33-9.4,7.57-1.47,4.38-5.07,7.32-8.02,10.65-2.39,3.68-5.15,7.08-7.85,10.53-4.79,8.15-8.97,16.66-12.75,25.33-2.79,7.44-6.85,14.34-8.95,22.04-4.68,1.4-9.29,3-13.8,4.85-2.78,1.37-5.55-.68-8.14-1.45.54-.03,1.64-.09,2.19-.12-.05-2-.05-4-.04-5.99,2-2.31,3.52-4.98,4.38-7.92,2.63-4.3,4.32-9.1,4.78-14.13-.84-.78-1.66-1.55-2.47-2.32-1.79.47-3.54.96-5.29,1.45-.98,2.52-1.73,5.42-4.21,6.91-5.31,3.59-9.8,8.19-15,11.92-7.56,5.13-15.83,9.43-24.84,11.29-8.11,1.51-16.91,2.38-24.56-1.38-4.93-1.77-7.94-6.24-10.7-10.39-.43-1.97-.89-3.92-1.31-5.87-2.08-1.26-4.18-2.45-6.32-3.55-1.52,2.8-2.43,6.3-5.41,7.96-6.88,4.13-13.09,9.53-20.78,12.16-5.12,2.03-11.53,2.84-16.28-.49-2.45-1.55-4.27-3.85-6.02-6.1-.1-.57-.29-1.71-.39-2.28-.51-2.37-.75-4.8-.94-7.21-1.81-.81-3.61-1.62-5.4-2.42-1.68,2.44-3.21,5.07-5.57,6.92-7.36,5.42-14.91,11.8-24.44,12.49-4.56.1-9.94.37-13.39-3.15-2.37-1.99-3.56-4.91-5.03-7.55.44-2.27.93-4.53,1.36-6.8-.61.03-1.84.09-2.45.12.07.53.2,1.59.26,2.13-2.69-.02-5.42-.42-8.06.1-1.72,1.54-2.81,3.66-4.58,5.13-6.05,3.78-11.66,8.73-18.92,9.98-5.01.6-10.48-.01-14.53-3.26-2.38-1.73-3-4.81-3.64-7.49-1.23-5.42,1.99-10.99-.53-16.22-1.81-.9-3.62-1.8-5.41-2.68-2.2,2.88-3.62,6.25-5.64,9.22-6.83,5.89-13.24,12.53-21.48,16.49-5.99,3.67-13.68,6.16-20.37,2.82-3.8-2.5-6.61-6.48-8.1-10.74-2.45-9.06.39-18.28,2.62-27.06,3.63-9.91,8.32-19.61,15.12-27.76,10.46-13.87,23.29-26.98,39.96-33.02,12.23-5.16,27.31-5.91,38.91,1.27,6.1-3.32,13.76-6.93,20.57-3.59-.55.84-1.08,1.68-1.59,2.53-.5,4.31-4.42,6.75-6.2,10.43-4.45,8.51-10.02,16.4-13.9,25.2-5.34,10.12-9.04,21.03-11.56,32.18-1.15,5-.82,10.16-.48,15.24,1.88,1.11,3.76,3.04,6.18,2.45,2.76-.54,4.25-3.27,6.12-5.11.9-.19,1.83-.37,2.77-.54,2.4-3.94,6.63-6.21,9.15-10.05,1.73-2.55,3.66-4.97,5.54-7.42,3.56-4.88,4.33-11.02,6.62-16.48,7.68-18.77,14.18-38.01,22.17-56.66,4.97-9.94,8.61-20.51,14.22-30.14,4.14-8.49,9.36-16.37,14.29-24.4,4.23-6.93,9.5-13.26,15.76-18.44,3.93-3.33,9.42-3.07,14.19-4.15-.03-.68-.09-2.02-.12-2.69-2.12-.14-4.22-.31-6.3-.57-5.7-1.2-11.56-.5-17.33-.68-9.68-.14-19.32.83-28.99.9-3.72-.17-7.23,1.11-10.61,2.46.09.63.28,1.88.37,2.51-.39.05-1.19.14-1.58.19.07.62.2,1.86.27,2.48-2.43.9-4.77,2.07-6.57,3.96-4.02,3.78-9.68,5.27-15.06,4.24-.06-.77-.09-1.53-.11-2.28,2.13-2.17,4.72-3.8,7.89-3.72.06-.98.19-2.92.26-3.89-5.33,0-11.07-.48-15.64,2.8-4.98,2.31-10.36,3.51-15.39,5.69-4.72,1.86-9.85,2.37-14.87,2.52-7.08-.11-13.88,2.54-20.96,2.33-6.4-.21-12.69,1.21-19.08,1.14-5.48.02-10.95-.54-16.42-.28-.06,1.19-.1,2.39-.12,3.59-4.08.33-6.24,4.02-8.36,7.01-1.94,2.68-2.61,5.97-3.62,9.06-2.34.73-4.62,1.59-6.87,2.53,0,.72-.03,2.17-.04,2.9-.43.32-1.31.96-1.74,1.28-.35-3.91-.13-7.88-.85-11.73-1.65-4.6-6.69-6.31-10.5-8.68-4.86-3.13-10.84-3.17-16.41-3.2-6,.1-12.12.14-17.89,1.97-7.09,2.34-14.11,5.19-20.2,9.58-12.93,8.42-25.18,18.12-35.46,29.68-13.25,13.37-23.53,29.49-31.34,46.56-7,15.71-12.08,32.67-12.02,49.99-.13,7.11,2.27,14.08,5.55,20.3,3.48,6.8,10.99,10.06,17.94,12.15,10.66,2.13,21.94.43,31.81-4.05,9.97-3.81,18.5-10.53,25.96-18.02,8.79-6.59,15.07-15.67,21.71-24.26,6.26-8.53,9.77-18.64,13.89-28.28,1.54-3.03.38-6.3-.66-9.24-8.4-1.46-17.41-1.77-25.43,1.49-2.15.53-4.27-.92-6.36-1.3.76-.08,2.27-.25,3.03-.34-.09-1.78-.16-3.55-.22-5.32,5.88-3.25,9.78-9.68,16.8-10.85,6.63-.6,13.24,1.14,19.89.77,8.99-.61,18.01-.2,27.02-.6,4.53-.15,9.09-.41,13.63.04-1.6,1.09-3.2,2.18-4.76,3.31-4.53,7.33-10.98,13.32-15.37,20.77-2.6,4.68-5.87,9.02-7.61,14.13-1.83,5.47-4.38,10.64-6.42,16.02-3.24,9.74-7.26,19.21-10.96,28.79-3.68,6.69-5.2,14.3-9.19,20.84-4.61,9.43-8.88,19.26-15.91,27.2-7.62,9.36-18.71,15.19-30.03,18.8-4.89,2.28-10.26,2.98-15.58,3.3-.41-.78-1.23-2.33-1.64-3.1,2.34-1.01,4.77-1.79,7.23-2.52l-.12-2c16.88-7.52,27.26-24.36,33.56-41.03,3.54-4.96,4.71-11.05,7.05-16.58,1.09-1.73.04-3.54-.49-5.23-1.86.14-3.7.28-5.52.43-2.1,5.14-7.09,7.62-11.11,10.99-7.34,4.72-14.25,10.13-21.96,14.28-10.3,6.24-22.01,9.77-33.79,11.96-11.43,2.21-23.59-.31-33.45-6.41-11.31-7.61-16.91-21.27-17.91-34.48-.11-7.36-.51-14.79.67-22.09,3.72-20.13,12.18-39.15,23.37-56.22,6.21-10.43,14.34-19.53,22.64-28.32,9.4-10.08,20.68-18.05,31.66-26.27,9.03-6.2,18.4-11.95,28.24-16.78,4.5-2.6,9.69-3.49,14.36-5.71,5.13-2.44,10.8-3.19,16.21-4.78,11.75-3.21,24.05-3.32,36.13-2.69,6.58.26,13.42,2.21,18.23,6.93,3.24.69,6.52,1.8,9.9,1.28,4.63-.68,9.24-1.6,13.92-2.03l-1.16-1.44c4.28-.79,8.48-1.96,12.67-3.14,3.95-1.16,8.17-1.78,11.71-4.04,2.96-1.98,6.37-3.03,9.84-3.74.27-.34.81-1.01,1.08-1.35-10-1.74-20.2-1.27-30.3-.99-27.29.47-54.58-.14-81.88.22-54.33-.29-108.66-1.14-163-.71-43.99.13-88.01-.52-131.96,1.51-3.7.22-7.41.07-11.1.29-2.33.17-3.73,2.34-5.07,3.99-4.78,7.22-10.03,14.12-14.25,21.69-4.41,5.6-6.9,12.33-10.83,18.22-7.04,13.07-13.12,26.64-18.55,40.46-1.4,4.51-3.44,8.79-5.96,12.78,1.19,1.5,2.39,3,3.6,4.5,6.01-.92,12.04-2.41,18.16-1.97,4.19.95,8.31,2.34,12.68,2.15-.12-1.53-.23-3.05-.35-4.57,1.69-1.32,3.55-2.39,5.5-3.29,2.73-4.25,6.88-7.25,11.15-9.82,3.71-2.54,8.22-.31,12.16.44,1.61,3.48,3.65,6.84,4.47,10.62.17,4.08-1.03,8.07-1.32,12.12.42.53,1.25,1.57,1.67,2.1,1.32.06,2.65.13,3.99.19.93-2.71,2.19-5.41,4.71-6.99,5.29-3.62,8.74-9.15,13.46-13.38,4.61-3.63,9.57-8.05,15.87-7.6,4.34-.48,8.08,2,11.67,4.04,5.69-1.24,11.6-1.16,17.23-2.62,5.57-1.56,6.29-7.96,8.7-12.32,4.47-7.75,7.37-16.77,14.38-22.72,7.33-5.1,16.8-5.86,25.44-4.9-1.96.23-3.92.41-5.87.59-.03.7-.1,2.1-.14,2.8.64.04,1.93.12,2.58.15-6.39,5.79-10.3,13.57-14.63,20.87-2.89,4.54-5.19,9.44-8.19,13.91,2.06,1.33,4.18,2.95,6.77,2.98,9.69.48,19.6-2.41,29.13.41-1.44,3.99-5.93,5.28-9.55,6.54-9.4,1.99-19.09.22-28.55,1.49-3.95.34-5.35,4.44-6.79,7.49-3.98,8.33-6.35,17.32-10.58,25.54-3.99,9.7-7.12,19.83-8.87,30.19-.78,5.65-1.3,12.61,3.68,16.58,2.1.7,4.39.2,6.56.03,4.33-.2,7.01-4.11,10.76-5.76,4.22-1.73,5.96-6.26,9.5-8.84,4.15-3.16,5.62-9.14,10.85-10.94,1.01-1.78,1.96-3.59,2.87-5.41.96.47,1.92.98,2.88,1.53-.12,2.91.41,6.46-1.83,8.74-4.13,4.34-7.53,9.28-11.59,13.67-2.95,4.07-7.61,6.25-11.21,9.61-6.89,6.47-15.97,10.37-25.21,11.94-5.64.33-12.21-.54-16.16-4.99-4.83-7.74-4.49-17.28-2.77-25.91.58-8.76,4.32-16.77,7.33-24.88,2.92-7.23,5.69-14.57,9.47-21.41,2.5-4.69,3.81-9.96,6.91-14.35-3.86-2.83-8.56-2.28-12.85-.92-3.49,4.94-6.44,10.24-8.93,15.75-1.34.04-2.66.08-3.97.13-.52,2.81-2.96,3.98-5.54,4.43-.04-3.07.25-6.14-.02-9.19-1.09-2.11-3.02-4.2-5.45-4.56-3.15,1.77-6.22,3.66-9.39,5.38-3.4,2.58-5.94,6.13-9.49,8.54-2.47,4.7-6.94,7.84-9.61,12.39-4.06,6.68-8.59,13.13-11.65,20.37-5.59,11.35-10.49,23.01-15.79,34.5-5.12.59-10.19,1.49-15.14,2.93-2.39,1.13-5.31-1.56-4.53-4.04,1.12-5.95,5.21-10.67,7.46-16.17,3.55-8.4,8.05-16.38,11.06-25.01,2.96-7.95,6.13-15.84,8.6-23.96,1.64-4.9,1.22-10.14,1.05-15.21-1.92.29-3.81.58-5.71.94-3.25,1.81-6.99,1.54-10.56,1.39.01,1.69.05,3.39.08,5.09-6.2-.18-12.42-.03-18.45,1.48-5.28,1.38-10.85.06-16.07,1.69-2.01,12.27-5.69,24.2-8,36.42-1.39,9.94-1.73,20.02-1.18,30.05.52,7.15,3.32,14.01,7.39,19.87,2.51,3.63,6.85,5.33,10.93,6.53,3.13-.6,5.83-2.54,8.77-3.73,2.49.67,5.06,1.01,7.65,1.17-.01.78,0,1.56.03,2.34-1.37.49-2.73,1-4.08,1.51.04.61.11,1.83.15,2.45-10.98,5.1-23.24,9.46-35.49,7.08-7.16-1.08-14.19-5-17.74-11.48-5.03-9.34-6.85-20.21-6.55-30.73,1.43-16.15,4.49-32.19,9.6-47.59,1.83-4.41,3.75-8.89,3.48-13.77-2.88-.64-5.82-1.33-8.78-.91-6.33.8-12.73.52-19.05,1.37-3.12.42-6.26.02-9.32-.56-2.43,1.16-5.19,1.97-7.1,3.96-5.81,6.95-11.07,14.33-16.86,21.29-5.71,6.59-11.88,12.79-17.25,19.66-8.12,9.2-16.99,17.67-25.48,26.51-13.46,11.92-27.06,23.69-41.23,34.76-17.07,13.31-36.05,23.89-55.18,33.89-22.9,11.46-47.39,19.66-72.54,24.45-17.38,4.1-35.32,5.1-53.11,4.52-22.56-1.71-44.55-7.34-66.32-13.2-7.64-1.78-14.85-5.59-22.9-5.07-7.11,9.89-14.67,19.47-23.05,28.34-12.39,12.3-24.77,24.75-38.88,35.14-10.67,9.18-22.36,17.09-34.22,24.64-6.19,3.91-12.45,7.73-18.98,11.04-9.45,4.8-18.54,10.28-28.04,14.96-9.13,3.91-18.08,8.27-27.46,11.58-8.03,3.07-16.43,4.95-24.71,7.2-11.6,3.05-23.54,4.36-35.42,5.73-12.21,1.38-24.67.83-36.56-2.37-14.27-2.83-26.92-12.1-34.42-24.48-2.49-4.3-4.29-9.12-4.33-14.13-.57-11.2-.19-23.06,5.29-33.13,4.08-6.86,7.26-14.31,12.49-20.41,5.59-6.69,10.93-13.77,17.94-19.04,10.9-11.57,24.62-20.16,38.76-27.24,4.95-2.31,9.49-5.38,14.5-7.56,5.86-3.19,12.41-4.66,18.47-7.35,18.86-7.35,38.37-13.01,58.27-16.73,11.41-2.86,23.17-3.52,34.82-4.83,21.74-.99,43.67-.94,65.17,2.83,10.16,1.82,20.45,3.08,30.41,5.88,3.56,1.05,7.19-.08,10.62-1.06,1.28-6.25,5.41-11.28,7.22-17.33,1.76-5.5,4.95-10.38,6.77-15.85,2.28-7.31,5.42-14.32,8.46-21.34,2.81-5.4,3.56-11.52,5.69-17.18-1.11-1.11-2.23-2.22-3.34-3.32-1.08.43-2.15.87-3.21,1.32-.67,2.23-1.54,4.39-2.72,6.41-5.87,1.15-8.26,7.37-13.24,10.01-7.2,3.79-14.27,9.5-22.91,8.67-7.76-1.75-13.52-9.22-14.36-16.97-.85-9.35-.03-18.98,3.22-27.82,1.39-3.82,2.24-7.96,4.92-11.15,1.84-4.58,4.39-8.81,6.98-12.99,3.28-5.53,8.42-9.55,12.6-14.34,6.65-7.21,14.22-13.76,23.29-17.72,10.69-5.67,23.26-7.68,35.18-5.73,4.38.63,6.54,4.89,8.16,8.52.25-.05.75-.14,1-.19,3.79-2.65,8.35-3.74,12.49-5.7,4.32-2.4,8.93.42,13.26,1.27-3.94,2.05-5.35,6.54-8.73,9.2-4.1,3.22-5.96,8.23-8.63,12.54-4.11,6.72-6.04,14.44-9.35,21.54-2.03,4.36-4.1,8.71-5.57,13.3-1.62,4.87-2.33,10.02-4.36,14.77-2.22,5.07-3.08,10.61-5.4,15.65-2.42,5.64-4.95,11.27-6.66,17.19-2.13,7.42-6.4,13.97-8.78,21.29-1.87,5.95-5.39,11.13-7.88,16.81-2.19,5.01-5.1,9.66-8.19,14.16,2.03,1.53,4.13,3.12,6.7,3.58,20.7,5.04,41.86,8.05,63.05,10.13,21.6,2.3,43.37.66,64.89-1.74,22.58-2.82,44.17-10.53,64.99-19.42,9.42-4.24,18.2-9.73,27.2-14.77,13.83-7.8,26.36-17.61,39.25-26.82,8.47-6.06,15.93-13.36,23.75-20.22,6.81-6.53,13.96-12.73,20.33-19.71,5.84-5.83,10.97-12.32,17.07-17.89,2.75-2.53,5.49-5.2,7.21-8.58,1.46-.84,2.92-1.68,4.39-2.53-.82-.93-1.6-2.19-3.04-1.95-3.87-.1-7.81-.05-11.54,1.09-7.87,2.41-16.08,3.52-23.96,5.9-13.83,4.08-26.67,11.74-36.42,22.39-2.13-1.98-5.55-4.33-4.24-7.73,2.86-9.06,7.79-17.99,16.04-23.16,5.79-4.25,12.86-6.17,19.86-7.31,13.97-2.17,28.15-2.11,42.18-3.69,4.28-.36,8.89.36,12.73-2.04,3.24-1.34,5.24-4.27,7.38-6.87,7.08-7.58,13.15-16.09,20.82-23.13,2.83-3.54,6.25-6.51,9.52-9.63,3.69-4.23,7.25-8.6,11.35-12.44,7.54-5.35,12.74-13.24,20.04-18.89,8.18-8.98,18.09-16.18,28.31-22.67,1.72-.86,3.54-1.52,5.27-2.38-.21-1.71-1.47-3.05-2.19-4.54-5.08-.14-10.16-.11-15.2.56-24.86,2.07-49.65,5.54-74.02,10.92-17.17,4.09-33.98,10.13-49.35,18.87-11.93,7.28-24.17,16.9-27.88,31.05-2.1,7.46,2.96,14.55,8.79,18.65,2.46,1.77,5.64,1.19,8.48,1.31,4.15-.18,8.11,1.24,12.07,2.27-10.18,4.17-21.95,6.68-32.56,2.56-8.18-2.69-16-9.01-17.88-17.74-.97-9.42-1.23-20.18,5.11-27.93,8.35-10.27,19.19-18.42,31.23-23.88,11.37-6.06,23.65-10.05,35.85-14.08,17.15-5.13,34.64-9.2,52.39-11.62,13.2-2.17,26.56-3.14,39.76-5.33,12.27-1.66,24.62-2.75,36.99-3.41,10.01-.42,19.96-1.64,29.98-1.83,38.31-1.62,76.63-3.6,114.98-3.22,53.68-.36,107.31,2.54,160.99,2.31,5.49.25,10.96-.34,16.3-1.65,1.62-1.07,3.25-2.14,4.89-3.21.57-1.01,1.16-2.02,1.77-3.03,2.63-.85,5.22-1.89,7.67-3.21-.03-1.05-.03-2.09-.02-3.12-5.85-3.57-13.09-1.58-19.03-4.62.76-.15,2.27-.43,3.02-.57.03-.72.09-2.17.12-2.89-.67-.14-2.02-.41-2.69-.55,2.39-.76,4.86-1.39,7.36-1.82.41,1.13.83,2.26,1.27,3.4,7.33.42,14.54-1.26,21.87-1.15-.01-1.34-.02-2.68,0-4.01l-1.7.27c.27-.54.83-1.62,1.1-2.16-2.21,0-4.42.01-6.61,0l.47,1.07c-2.15-.01-4.26,0-6.39,0,0-1.33.03-2.65.05-3.98l3.96-.4c-2.05-.79-3.99-1.59-6-2.38,9.51-1.74,19.27-.61,28.75-2.47,1.82-1.15,3.68-2.25,5.57-3.32-.15-.4-.45-1.19-.6-1.59l1.59.19c-.1-.76-.29-2.28-.39-3.05,7.66-1.58,16.1.1,23.06-4.15.28-.47.84-1.41,1.12-1.89,6.12-1.7,12.41-2.57,18.63-3.76,8.02-.64,16.07-.33,24.11-.33,2.43-2.29,5.28-4.07,8.21-5.67,5.84-3.03,12.82-1.55,18.61-4.68,4.23-1.98,8.66-3.59,12.55-6.25,5.93-1.99,11.85-4.07,17.87-5.79.05-.55.15-1.66.19-2.21,5.07-1.34,10.27-1.95,15.45-2.66.29-.68.85-2.04,1.13-2.73-3.5-.15-7.02-.11-10.43.76-5.35-2.65-11.38-1.33-17-2.65-2.35-.51-4.67-1.12-7-1.59-.08-1.55-.15-3.09-.19-4.63-7.09-1.79-14.46-.55-21.67-1.1-7.67-.55-15.2,1.3-22.83,1.63-5.45.6-10.97.63-16.34,1.77-2.17.49-3.7,2.42-5.91,2.75-7.5,1.09-15.22,1.4-22.42,3.93-9.03,3.25-19.26,1.73-27.94,6.14-4.09,2.26-8.91.86-13.31.85,2.37-.68,4.74-1.36,7.12-2.04.39-1.25.79-2.49,1.21-3.74,10.81-2.87,21.71-5.55,32.82-6.99,9.29-1.39,18.28-4.35,27.63-5.46,3.33-.5,6.69-.85,10.03-1.44,4.85-.22,9.72-.1,14.58-.03-.06-2.18-.12-4.37-.15-6.55.53.21,1.58.62,2.11.82-.01-.7-.02-2.11-.03-2.81-.53.24-1.6.7-2.14.94l.34-1.61c-1.5.08-2.98.16-4.44.25l.41-1.35c-.82.11-2.47.33-3.29.43,0-1.14.02-2.28.06-3.42.74.07,2.24.22,2.99.3l.06-1.09c4.82-.14,9.65-.11,14.49-.14,8.57-.3,16.41-4.27,24.8-5.57-2.13-.11-4.25-.21-6.36-.29l-.07-.99c-2.03.04-4.06.07-6.06.11l.25-1.01c-1.82-.08-3.64-.18-5.42-.3-2.24-.77-4.59-.94-6.9-.69-4.56,1.71-9.52,1-14.26,1.06-3.44.07-6.61-1.33-9.93-1.9-2.69-.38-5.4-.3-8.08-.39-3.04-.72-6.08-1.39-9.12-2.07-1.32-.36-2.61-.72-3.9-1.07-2.55-.74-5.83-3.02-8.1-.4-1.21-3.59-6.18-2.63-9.19-3.59l.02-.49c-1.99-.25-3.97-.52-5.93-.87-2.64-.29-5.27-.48-7.9-.72-3.13-.54-6.3-.68-9.44-.74.02-.78.05-2.35.07-3.13l1.91.21c-3.6-.74-3-4.23-3.05-7.09,1.07-.06,3.2-.19,4.27-.26-5.33-.9-10.28-3.36-15.69-3.9-4.95-.69-9.94-1.19-14.85-2.11-8.46-1.69-17.26-1.94-25.31-5.29,4.88-1.72,10.1-1.54,15.21-1.64,6.03-.03,12.06-.33,18.07-.98,1.71-.93,3.53-1.69,5.41-2.28,0-1.54.03-3.07.06-4.61.8.07,2.41.19,3.21.26-.1-.51-.32-1.52-.42-2.02,2.73-.66,5.5-1.16,8.32-1.33l-.15-.65c3.56-.77,7.08-1.65,10.64-2.56-6.66-3.45-14.2-1.92-21.17-3.9-2.34-.52-4.92-1.03-6.2-3.28-3.83-1.38-7.82-2.26-11.87-2.51-3.47-.11-6.03-2.63-8.44-4.79-.67-.03-2.02-.09-2.69-.12-1.24-1.25-2.46-2.5-3.67-3.76-4.69-1.63-10.99-.56-14.12-5.07-5.76-1.58-11.99-.6-17.53-3.09-5.18-2.29-11.21-2.78-15.67-6.51-4.09-1.83-8.24-3.52-12.4-5.17.1-.9.22-1.8.35-2.7-1-.84-2.01-1.69-2.98-2.54,2.39.09,4.75.44,7.11.86-.28.73-.55,1.47-.8,2.21,11.18-.24,21.62,4.18,31.88,8.07,5.67,3.19,12.27,3.8,18.51,5.27,4.64,1.23,9.23-.91,13.91-.59.05.64.15,1.93.2,2.58,1.2.41,2.42.83,3.64,1.27,1.58.14,3.18.26,4.79.39,1.19,3.94,5.53,2.71,8.69,2.94-.04-1.39-.06-2.78-.07-4.16.78.07,2.35.21,3.14.27v-3.07c-1.25-.36-2.48-.72-3.69-1.09-1.36-.08-2.69-.17-4.01-.25-.97-4.76-6.93-4.05-9.99-6.74-3.85-3.39-8.44-5.86-12.03-9.55-3.34-1.54-6.73-2.96-10.19-4.19-.05-.59-.15-1.78-.2-2.38-4.56-.94-9.49-1.4-13.11-4.65-1.06-.51-2.1-1.02-3.14-1.52.02-.96.05-1.91.09-2.87,2.38-.02,4.78-.04,7.19-.08-.02,1.14-.02,2.27-.01,3.41l-1.26-.47c.02.66.06,2,.09,2.66.86-.34,2.58-1.04,3.44-1.39l.71.1c-.04-1.8-.07-3.6-.08-5.39l-1.27.49c.12-.79.34-2.37.46-3.16-4.67-2.43-10.29-1.88-14.78-4.66-2.3-2.03-3.2-5.43-6.44-6.44,2.58-.9,5.31-1.25,8.05-1.12-.05,1.46-.1,2.92-.13,4.38,1.18-.2,2.39-.39,3.6-.59,1.87-.32,3.75-.62,5.65-.91l-.31-1.84c.62.55,1.85,1.67,2.47,2.22l-.66-2.23c1.17,0,3.51,0,4.68,0l-.41,1.49c.33,0,1,.02,1.33.02-.22-1.06-.46-2.12-.71-3.17-1.87-.28-3.76-.23-5.63-.24.04-1.23.09-2.46.16-3.68-1.15-.69-2.26-1.38-3.37-2.07-1.72-.49-3.42-1-5.1-1.52-2.19-3.06-5.57-4.73-8.94-6.14.18-.35.54-1.04.72-1.39-4-.98-8.1-1.49-12.22-1.31-.32-4.14-3.4-7.13-4.89-10.83,2.05-.06,4.13-.12,6.2-.12,3.34,2.61,7.63,2.25,11.63,2.27-.02-3.21,0-6.42.08-9.63-.79.12-2.37.37-3.16.5l.06-.67c-1.26-.75-2.55-1.44-3.85-2.08,1.24-.14,3.74-.42,4.99-.57-2.21-1.19-4.3-2.41-6.45-3.66,1.11-.02,3.33-.07,4.44-.09-.03-2.11-.04-4.21-.16-6.31-3.44-2.89-3.98-7.58-4.44-11.75,1.41-.41,2.87-.82,4.32-1.21.07-2.91.15-5.83.21-8.74-2.13.01-4.25.01-6.35.02.03-2.98,0-6.01.77-8.91.38-2.81.47-5.65.48-8.48Zm10.08,28.22c-.3,2.71-.77,5.4-1.28,8.09,1.06.03,3.19.11,4.25.14.02-1.17.04-2.35.08-3.52.29-1.51.62-3,.99-4.49-1.37-.07-2.7-.15-4.04-.22Zm59.84,20.48c.52-.17,1.57-.5,2.1-.67-.09,2.65-.25,5.3-.46,7.94.61-.59,1.81-1.79,2.42-2.38-.02.93-.05,2.81-.06,3.75.78-.02,2.35-.08,3.13-.11,2.7,3,4.6,6.87,8.33,8.78,2.77,2.55,5.97,4.6,9.61,5.69,1.37,1.24,2.75,2.48,4.15,3.72,2.21,0,4.44.02,6.67.03,0,1.28.02,2.55.06,3.83,1.77.3,3.86,1.73,5.31-.09.09-2.39-1.38-4.34-2.5-6.3-2.23-.99-4.32-2.26-6.18-3.82-1.59-3.16-5.29-4.14-7.47-6.76-1.43-1.68-3.35-2.72-5.38-3.46-1.56-2.21-3.21-4.47-5.61-5.83-1.77-1.39-4.75-2.18-3.97-5.38l-.65,6.11c-1.04-1.62-.78-3.58-.58-5.38l-.84.08c-.08-1.37-.15-2.73-.21-4.09-2.69-.04-5.38-.08-8.06-.16.06,1.5.11,2.99.19,4.5Zm-51.94,3.53c0,1.72,0,3.45-.02,5.18,1.65-.04,3.32-.08,5-.11-.01-.52-.05-1.56-.07-2.08-.96.05-2.89.16-3.86.21.33-.78,1-2.34,1.33-3.12-.59-.02-1.79-.06-2.38-.08Zm8.09,6.1c-.07,1.66-.13,3.32-.17,4.98,4.09.09,8.19.03,12.3.03-.16-.41-.47-1.23-.62-1.64-3.53-.95-7.16-1.5-10.82-1.49.43-.44,1.27-1.34,1.7-1.79-.6-.02-1.8-.07-2.39-.09Zm92.19,105.52c1.31,2.27,3.93,2.66,6.23,3.34.4.01,1.19.05,1.58.07-.11.91-.2,1.83-.28,2.75,6.16.86,12.38,1.86,18.63,1.17,7.59-.95,15.31-.54,22.79-2.37-10.65-.54-21.11-2.72-31.7-3.75-1.69-.41-3.36-.76-5.02-1.12-2.33-.48-4.66-.81-6.97-1.25-1.79.3-3.54.69-5.26,1.16Zm105.5,41.53c.03,1.05.11,3.13.14,4.18,4.56-.29,8.79-2.03,12.94-3.82-4.32-1.04-8.81-2.07-13.08-.36Zm-20.08,6l.58.9c-2.35.15-4.72.33-7.02.6,4.77.47,9.61.16,14.34,1.12,4.99-.83,9.9-2.05,14.82-3.28-7.48-2.43-15.28-1.14-22.72.66Zm111.25,74.19c-.6.87-1.09,1.8-1.58,2.73,2.51.04,5.03.04,7.56.01-.05-.98-.07-1.96-.07-2.94-1.98.03-3.97-.11-5.91.2Zm-230.19,35l.55.88c-2.86-.06-5.7-.08-8.54-.13l.42,1.23c-.79-.08-2.36-.23-3.14-.31-.35,1.69-.77,3.39-.67,5.13-2-.02-3.97.13-5.88.68-.77.16-2.33.48-3.11.65.83.38,2.48,1.14,3.3,1.53,4.62.12,9.39.75,13.89-.67,5.37-.4,10.77.03,16.14-.56-1.69-.27-3.32-.48-4.98-.68.04-.77.1-2.32.14-3.1l1.09.2c-.04-2.12-.05-4.25-.01-6.36-3.07.51-6.12,1.14-9.2,1.51Zm71.77,9.37c4.85.53,10,1.07,14.49-1.33-4.89-.87-9.8-.11-14.49,1.33Zm21.3.73c2.43-.15,4.73-.83,6.96-1.84-2.3-.6-4.56-1.19-6.83-1.78-.06,1.2-.11,2.41-.13,3.62Zm37.18,20.17c4.62,1.71,9.51,1.82,14.39,1.29-4.56-2.14-9.56-2.42-14.39-1.29Zm-508.87,21.56c-.09.44-.27,1.33-.36,1.77-1.2,1.62-2.33,3.28-3.4,4.97-1.68.42-3.35.86-5.02,1.3-1.03,2.31-2.15,4.59-3.48,6.76-1.21.12-2.41.25-3.6.38-5.43,6.87-11.54,13.17-17.87,19.19-4.57,4.78-8.99,9.72-13.81,14.25-3.1,2.94-5.18,6.75-8.15,9.82-6.61,6.86-12.26,14.56-18.97,21.34,1.47,1.01,2.96,2.31,4.91,1.92,10.1-.75,20.24-.87,30.37-.74,9.03-14.88,14.8-31.45,23.78-46.33,2.95-7.37,8.24-13.42,12.01-20.28,2.22-2.33,5.01-4.31,6.35-7.32.37-2.22-.11-4.47-.26-6.68-.85-.12-1.68-.24-2.5-.35Zm-417.2,64.09c-4.66,1.19-9.3,2.8-13.28,5.56-4.82,3.08-8.2,7.79-12.35,11.63-5.78,6.82-10.81,14.29-14.79,22.3-4.61,7.42-6.34,16.07-8.18,24.48-1.06,5.25.05,10.55,1.04,15.72,2.93,1.13,5.99,1.83,9.11,2.23,3.44-4.89,9.7-6.54,12.97-11.56,3.54-3.82,7.53-7.24,10.33-11.7,6.02-7.12,11.33-14.79,16.24-22.72,4.47-8.19,8.64-16.57,13.73-24.4,1.71-2.74,4.67-4.72,5.42-8.01-6.51-2.14-13.26-4.84-20.24-3.53Zm860.27,15.12c-16.3,11.7-27.17,29.52-33.67,48.23-2.8,7.72-1.3,15.93-.12,23.8,3.44-.61,7.18-.17,10.42-1.56,3.31-3.23,6.62-6.48,10.8-8.59.68-2.45,1.71-4.8,3.54-6.63,3.99-.78,6.5-4.11,7.18-7.98,6.94-6.06,11.4-14.24,16.1-22.02,5.48-8.6,10.86-17.25,16.78-25.56-1.63-.79-2.26-2.32-2.59-3.95-9.42-2.37-20.6-2.17-28.44,4.26Zm207.26,6.12c-4.9,4.83-7.55,11.37-12.45,16.21-.06,1.03-.09,2.06-.1,3.1-.9.54-2.7,1.64-3.61,2.18,2.92,1.11,5.99,2.44,9.21,2.07,2.85-.6,5.32-2.26,8.04-3.26,3.48-1.48,7.48-2.05,10.37-4.69,2.99-2.55,6.68-4.51,8.56-8.12,3.09-4.83,3.11-10.86,2.33-16.34-1-3.77-6.2-4.33-9.18-2.67-5.62,2.25-9.05,7.4-13.17,11.52Zm-315.59,63.82c-.47,1.84.8,3.49,1.3,5.2.67-.08,2.01-.23,2.68-.31.23-2.68.35-5.37.25-8.06-1.44,1-3.24,1.64-4.23,3.17Zm-950.34,72.63c-9.55,2.5-19.35,3.98-28.73,7.1-10.42,3.65-21.07,6.84-30.87,12.03-10.13,5.27-20.73,9.94-29.79,17.02-5.27,3.66-10.44,7.52-14.8,12.25-4.93,4.24-8.13,9.96-12.01,15.09-8.57,12.11-11.92,28-8.06,42.4,3.08,8.63,8.88,16.25,16.15,21.82,5.49,3.82,11.78,6.33,18.29,7.77,21.29,6.05,43.89,3.71,65.12-1.38,6.84-1.8,13.9-2.84,20.54-5.35,10.4-3.81,20.55-8.26,30.83-12.38,22.62-10.91,43.61-25.06,62.73-41.3,13.26-12.4,25.82-25.61,37.02-39.92,5.14-7.6,11.03-14.66,16.17-22.25-.93-1.15-1.86-2.3-2.77-3.45-10.45-3.15-21.28-4.85-31.84-7.63-21.55-5.55-43.94-7.27-66.14-6.85-14,1-28.15,1.69-41.84,5.03Z"/>
    <path class="cls-1" d="m1124.02,26.3c.8-.04,2.41-.11,3.21-.14-.16,1.13-.3,2.26-.43,3.39l1.28-.48c-.01,1.79-.01,3.59.01,5.38-1.05-.01-3.16-.03-4.21-.04.04-2.7.09-5.41.14-8.11Z"/>
    <path class="cls-1" d="m1114.86,63.3c.39-.77.96-1.52,1.4-2.29,1.84,3.54,6.21,3.9,9.54,5.12-3.08-.02-6.09,1.71-9.15.95-1.22-1.01-2.24-2.21-3.3-3.37.38-.1,1.13-.31,1.51-.41Z"/>
    <path class="cls-1" d="m324.73,274.33c8.91-4.26,17.46-10.83,27.78-10.59,3.55-.52,6.21,2.74,7.43,5.67,2.64,9.56-.03,19.56-3.32,28.6-2.45,8.32-6.36,16.09-10.18,23.84-7.38,12.22-13.98,24.94-22.23,36.63-7.28,11.88-15,23.49-23.44,34.58-9.65,12.7-19.03,25.61-29.21,37.88-3.34,6.73-9.95,10.78-13.93,17.06-2.92,4.39-6.79,8.03-9.86,12.31-1.63,2.28-3.72,4.16-5.87,5.94-2.83,2.24-4.13,5.82-6.9,8.12-3.89,3.09-6.33,7.6-10.33,10.57-2.87,5.05-8.34,7.75-11.34,12.66-3.78,5.46-8.87,9.79-13.64,14.32-5.79,6.93-13.05,12.39-19.38,18.78-7.32,7.15-16.17,12.43-23.71,19.31-2.86,2.97-7.29,2.56-11.01,3.52,0-6.32,4.63-11.07,6.97-16.6,3.88-9.11,9.09-17.65,11.94-27.19,5.08-11.94,8.07-24.61,11.85-36.99,2.3-9.03,4.21-18.16,6.98-27.07,1.95-7.19,2.75-14.61,4.39-21.86,1.68-7.51,1.97-15.25,3.38-22.81,1.49-7.96,1.43-16.09,2.27-24.13,1.09-7.46-.11-15.01-1.13-22.41-2.13-8.41-3.5-17.93-10.39-23.96-7.25-7.08-17.73-8.72-27.42-9.32-14.99-.29-29.55,4.02-43.53,8.99-5.37,1.59-10.13,4.58-15.22,6.82-14.91,5.93-27.79,15.83-40.21,25.79-6.3,5.34-12.96,10.41-18,17.04-9.41,10.01-18.99,20.1-25.82,32.12-1.25,2.86-1.87,5.94-2.86,8.9-2.65,1.66-5.33,3.27-7.92,5.02-.79-5.23-2.05-11.49,1.62-15.93,2.08-5.83,5.19-11.22,8.97-16.1,3.79-6.35,8.92-11.73,13.79-17.23,6.12-6.97,14.29-11.62,20.75-18.22,8.15-5.9,16.16-12.02,24.54-17.6,7.41-4.73,15.25-8.72,22.94-12.98,13.8-8.24,28.36-15.26,43.72-20.13,16.68-6.16,34.54-9.74,52.37-8.42,11.4,1.17,22.09,7.54,28.59,16.97,5.67,8.45,6.93,18.87,8.18,28.72,2.53,22.67-2.91,45.08-7.63,67.09-4.89,20.57-12.02,40.55-19.88,60.15-3.61,7.29-5.77,15.19-9.54,22.41-2.13,5.81-6.14,10.72-7.87,16.7,2.05.52,4.11,1.02,6.19,1.47.89-2.28,1.78-4.56,2.63-6.85,1.46-.34,2.93-.66,4.4-.95,2.48-2.46,4.56-5.28,6.38-8.26,3.8-2.23,5.84-6.4,9.5-8.82,3.7-2.33,5.23-6.75,8.81-9.19,3.28-5.03,8.82-8.11,11.59-13.48,2.01-3.59,6.26-5.13,8.12-8.83,2.56-4.62,6.92-7.78,9.97-12.03,3.57-4.78,7.49-9.26,11.3-13.84,2.49-3.71,5.15-7.31,8.23-10.55,4.77-8.33,11.04-15.67,16.28-23.69,10.84-14.7,20.05-30.5,28.58-46.64,5.56-11.27,11.77-22.3,15.41-34.4,2.59-8.54,4.15-17.37,5.1-26.23-1.38-4-3.5-7.69-7.12-10.05.17-1.51.35-3.01.54-4.51l-2.6-.12Zm-147.78,239.66c.03,1.83.04,3.67.04,5.51.36-.08,1.09-.24,1.46-.32,1.08-2.45,1.96-4.99,3.09-7.42-1.54.71-3.07,1.47-4.59,2.23Z"/>
    <path class="cls-1" d="m620.09,336.41c6.38-3.36,13.55-4.62,20.48-6.34,3.77-1.06,7.62-.02,11.39.53-.01.46-.01,1.39-.01,1.86-4.01,2.19-7.34,5.64-11.83,6.87-4.82,1.37-9.49,3.55-13.11,7.07-5.14,5.36-9.35,11.59-13.03,18.02-3.83,7.75-8.99,14.75-12.29,22.78-5.12,8.08-7.84,17.31-12.18,25.8-4.13,10.54-8.66,20.94-12.18,31.72-4.97,12.11-9.23,24.49-13.25,36.94-4.01,13.12-8.5,26.39-8.84,40.23-.79,4.74,4.89,5.84,8.38,6.25,3.97-1.28,5.83-5.76,9.88-7.05,1.85-2.22,3.74-4.4,5.58-6.62,1.47-.76,2.95-1.53,4.42-2.32.97-2.48,2.08-4.91,3.34-7.25,1.68-1.1,3.31-2.28,4.91-3.5.94-3.43,2.14-6.78,3.24-10.17,1.42,1.2,2.56,2.66,3.35,4.35.23.31.69.91.92,1.21-1.36,3.47-2.67,6.97-3.98,10.47-4.43,1.43-5.58,6.07-7.96,9.46-4.37,3.28-7.03,8.16-11.24,11.6-3.74,5.21-9.54,8.15-15,11.2-6.74,3.77-15.15,4.3-22.18,1-1.68-2.72-3.51-5.46-4.17-8.63-1.02-4.38-.33-8.93-1.1-13.32-.54-1.8-2.61-2.08-4.07-2.76-1.17,1.82-1.98,3.97-3.63,5.42-7.73,4.54-14.24,11.1-22.67,14.45-10.16,4.74-21.39,9.33-32.8,6.94-7.3-1.06-14.46-5.27-17.45-12.26-5.53-12.38-3.3-26.57,1-38.96,3.48-8.61,7.86-16.92,13.66-24.2,2.13-3.86,6.11-5.97,8.97-9.17,7.67-9.27,17.66-16.77,28.99-20.92,6.08-1.96,12.46-3.08,18.84-3.34,3.28.24,7,.15,9.67,2.41,3.85,3.34,7.28,8.37,5.72,13.71-1.78,6.5-5.72,12.24-9.95,17.41-7.45,6.82-15.71,12.94-25,17.03-5.19,2.35-10.54,4.69-16.28,5.17-4.63.38-9.24.97-13.76,2.02-1.66,8.62-2.96,17.58-1.21,26.29,1.16,5.2,4.85,10.58,10.44,11.48,9.28,2.33,18.66-1.79,26.61-6.31,4.19-3.77,9.5-6.37,12.23-11.53.61-.07,1.83-.21,2.44-.29,3.7-4.43,8.03-8.3,11.68-12.77,3.96-5.58,4.17-12.75,7.06-18.82,4.69-10.04,7.2-20.87,11.06-31.23,1.82-6.95,5.73-13.05,8.06-19.8,5.29-13.68,11.57-26.93,17.7-40.25,5.43-11,11.07-21.94,17.8-32.21,5.32-8.21,12.5-15.35,21.35-19.67Zm-109.23,109.95c-1.2.04-2.4.09-3.58.14-6.6,5.79-13.25,11.63-18.57,18.66-2.07,3.24-3.91,6.64-6.47,9.54-2.07,2.02-1.05,5.11-1.27,7.65,13.42.51,26.34-6.95,34.12-17.65,3.44-6.31,4.63-14.83-.3-20.72-1.32.78-2.63,1.57-3.93,2.38Z"/>
    <path class="cls-1" d="m296.04,439.42c8.08-5.12,17.84-8.02,27.39-5.93,1.12,3.29,3.23,6.06,5.77,8.39,3.19-.93,6.25-2.24,9.29-3.57,3.06,2.82,6.29,5.74,7.84,9.72,3.23,8.26,2.73,17.36,1.17,25.93-1.82,7.44-5.29,14.35-7.43,21.69-.75,2.84-2.89,4.94-4.53,7.27-2.61,3.44-4.37,7.5-7.54,10.5-4.14,3.85-7.5,8.51-12.14,11.81-9.83,7.14-20.35,13.95-32.33,16.73-8.74,1.97-19,1.11-25.79-5.3-2.73-3.08-5.21-6.53-6.62-10.43-3.54-12.05-1.84-24.99,2.15-36.7,1.37-4.25,4.23-7.73,6.15-11.7,3.74-8.94,10.43-16.18,16.71-23.4,6.11-5.64,12.4-11.29,19.91-15.01Zm9.1,12.25c-2.97,1.99-6.37,3.32-9.11,5.65-7.2,7.19-12.23,16.16-16.46,25.33-5.66,10.82-8.16,23.05-8.42,35.19.07,6.46,3.5,13.32,9.35,16.34,5.57.53,11.37-1.97,15.3-5.95,9.22-7.06,15.63-17.02,20.81-27.25,4.58-8,6.27-17.17,8.33-26.04,1.51-6.48,2.01-13.87-1.92-19.62-1.91-1.95-4.34-3.28-6.51-4.92-3.77.07-8.07-1.11-11.37,1.27Z"/>
    <path class="cls-1" d="m1646.4,446.82c4.41-.86,8.8-1.83,13.11-3.14,2.23-.86,4.49.18,6.67.75-.54.48-1.61,1.45-2.15,1.93-.11,1.07-.2,2.14-.26,3.22-3.25,2.24-6.49,4.72-8.41,8.25-4.39,7.54-9.75,14.48-13.65,22.31-5.34,10.6-10.32,21.42-14.42,32.56-2.26,5.64-1.3,11.79-1.35,17.69,2.05,1.88,4.68,2.63,7.42,1.94,1.08-1.7,2.17-3.53,4.05-4.48,4.05-2.12,6.44-6.21,10.13-8.81,2.64-1.63,3.84-4.56,5.06-7.27,4.39-1.59,7.33-5.32,8.76-9.66,3.89-2.54,6.39-6.54,9.26-10.08,2.42-3.02,4.54-6.28,6.51-9.62,2.41-4.17,5.68-7.85,7.45-12.38,1.99-5.09,5.38-9.47,7.49-14.51,1.6-4.46,5.98-7.12,10.16-8.82,3.74-.76,7.6-.29,11.4-.58,2.04-.84,4.17-1.49,6.33-2.04-.01,1.88-.01,3.76.02,5.65-9.01,6.5-12.55,17.64-17.31,27.2-9.1,17.57-13.9,36.89-20.86,55.32-2.91,8.91-7.44,17.16-11.17,25.74-9.51,19.1-20.78,37.88-37.04,52.02-12.85,12.32-28.21,21.94-44.94,28.02-7.62,2.14-15.21,4.82-23.17,5.25-8.04.47-16.23.58-24.07-1.47-5.62-1.47-11.64-2.78-16.09-6.76-2.95-2.67-5.92-5.69-7.16-9.56-.73-3.52-.29-7.12.12-10.64,2.42-4.43,4.63-8.99,7.13-13.38.46-.1,1.36-.3,1.81-.4,1.85,6.18-.21,13.42,4.21,18.79,4.13,4.61,8.49,9.65,14.62,11.55,9.96,4.3,21.2,3.99,31.59,1.59,16.11-4.4,30.29-14.15,41.69-26.18,13.48-14,23.88-30.75,31.53-48.56,2.18-5.08,5.01-9.86,6.91-15.06,1.23-3.3,1.7-6.85,3.35-9.99,2.73-5.63,6.18-11.3,6.06-17.78-.82-.78-1.62-1.56-2.4-2.33-.92.12-2.76.35-3.68.47-1.69,2.26-2.12,5.15-3.46,7.59-1.21,1.32-3.06,1.78-4.58,2.58-2.37,3.21-4.47,6.86-8.24,8.61-5.93,4.44-11.36,9.92-18.49,12.45-5.63,2.5-12.46,3.6-17.92.12-4.42-1.68-5.38-6.84-5.57-11.01-.18-9.56,3.62-18.55,6.15-27.61,2.08-7.39,5.26-14.36,8.99-21.05,1.88-3.02,1.81-6.73,3.48-9.83.19-.63.57-1.88.76-2.51,2.05-4.45,4.1-9.03,7.68-12.5,4.97-5.04,9.29-11.59,16.49-13.59Z"/>
    <path class="cls-1" d="m875.51,606.75c3.3-2.31,5.74-5.66,9.32-7.61-.44,5.69-4.65,9.87-7.9,14.18-4.43,5.37-7.41,11.7-10.53,17.87,13.72,4.06,26.89,11.63,35.46,23.32,9.35,12.31,12.73,29.31,7.2,43.96-3.16,10.36-11.44,17.91-19.98,24.01-7.35,5.05-14.22,11.05-22.57,14.43-6.73,2.79-14.29,2.78-21.32,1.23-8.84-1.86-17.65-4.13-26.69-4.75-6.27,9.98-11.8,20.42-18.08,30.4-2.78,4.26-5.08,9.11-9.42,12.02,2.15-4.26,4.51-8.42,6.71-12.67.22-3.3,1-6.55,2.42-9.54,3.23-7.01,5.65-14.37,9.18-21.23-13.23-1.13-26.57,1.3-38.85,6.23,1.64-2.62,3.31-5.22,4.96-7.83,12.13-4.01,24.71-7.18,37.56-7.25,10.53-21.7,18.99-44.33,28.75-66.38,2.35-4.77,3-10.2,5.75-14.79-5.59-1.06-11.23-1.87-16.9-2.36-5.98-.58-11.95.32-17.92.41,9.24-3.35,18.68-6.12,27.93-9.46,4.5-1.85,9.36-.34,13.98.08,3.11-4.62,5.37-9.83,9.13-14,3.51-3.88,7.52-7.29,11.81-10.27Zm-15.63,39.09c-5.47,10.56-10.02,21.55-15.14,32.28-5.74,11.92-11.39,23.88-17.11,35.81-1.36,2.87-2.89,5.75-3.27,8.95,5.53,1.78,11.4,1.96,17.07,3.08,9.58,1.63,19.61,4.43,29.19,1.24,7.69-2.97,14.52-8.53,18.38-15.9,6.01-9.93,7.81-22.15,5.29-33.45-1.08-4.9-4.04-9.06-6.57-13.3-6.12-9.8-16.53-16.58-27.84-18.71Zm-13.85,15.67c-6.01,12.97-11.64,26.11-17.59,39.12-1.88,4.24-4.24,8.32-5.31,12.87,2.57-2.34,3.76-5.64,5.13-8.73,3.5-8.1,7.7-15.87,11.03-24.04,4.37-10.74,9.67-21.12,13.5-32.07-2.92,3.9-4.75,8.44-6.76,12.85Z"/>
    <path class="cls-1" d="m1211.03,623.38c2.21-2.31,5.49-2.73,8.43-3.47-4.56,5.92-8.59,12.25-11.87,18.97,4.11.13,8.22.21,12.35.3.34.46,1.04,1.37,1.38,1.83,24.06.49,48.13-.12,72.19.22,20.31.06,40.62.24,60.93-.12,8.86.05,17.6-1.55,26.16-3.74,8.42-1.65,15.82-6.4,22.35-11.8-9.6,12.13-23.6,20.53-38.5,24.38-10.08,2.73-20.57,3.49-30.97,3.43-42-.13-84-.49-125.99.04-2.44.23-5.93-.46-6.95,2.48-3.6,7.08-6.12,14.65-9.06,22.02-4.08,10.27-8.01,20.6-11.95,30.92-1.36,3.93-3.14,7.84-3.36,12.06-.06,2.16.9,4.87,3.29,5.38,3.49.12,6.22-2.6,8.4-5.02,2.47-2.7,2.84-6.49,4.19-9.76,2.47-6.04,6.08-11.77,11.24-15.87,5.46-4.72,11.88-8.77,19.15-9.85,4.07-.63,7.81,1.83,11.84,1.75,3.8-.96,8.3-4.87,11.65-.87-2.63,8.36-7,15.99-10.65,23.92-1.65,3.9-3.18,8.07-2.94,12.37,1,4.01,6.56,4.78,9.35,2.1,5.84-3.4,6.16-10.67,8.76-16.21,2.59-6.35,7.16-11.64,12.28-16.1-6.28,7.46-11.76,15.93-13.88,25.57-1,4.66-5.54,7-8.56,10.22,6.43-1.6,9.54-7.85,11.28-13.66,4.21-13.62,15.81-25.62,30.3-27.63,1.62-.02,2.31-1.39,3.03-2.62,2.34,1.83,4.86,4,5.03,7.22,1.12,7.12-4.75,12.61-9.87,16.55-5.68,4.64-12.76,6.84-19.03,10.46,1.37,3.14,3.09,6.68,6.68,7.71,4.69,1.19,9.59-.43,13.63-2.83,10.11-5.92,18.61-15,22.99-25.9-.84-4.07-3.28-8.26-1.26-12.4,1.54-4.13,6.45-8.9,11.04-6.21,3.2,2.78.95,8.73,5.17,10.82,6,3.46,13-1.68,19.08,1.5-4.21,9.04-13.11,15.07-16.62,24.53-1.19,2.97-1.51,6.98,1.21,9.23,1.45,1.43,3.55.71,5.3.32,5.21-1.47,10.4-5.14,11.4-10.8,1.72-6.93,5.31-13.36,10.59-18.21,5.22-4.81,11.3-9.02,18.25-10.84,3.89-1.01,8.78-.75,11.54,2.55,2.7,3.1,2.32,7.61,1.16,11.27-1.7,5.17-6.36,8.48-10.66,11.39-5.29,3.64-11.62,5.17-17.35,7.91,1.2,5.94,5.59,11.25,11.58,12.75,8.64,2.49,17.43-.55,25.71-2.93-3.3,1.7-6.69,3.2-9.91,5.04,6.34-.3,12.04-3.44,17.55-6.31,7.08-3.92,13.22-9.39,18.04-15.88-.23,2.33-1.16,4.53-2.76,6.25-7.02,8.15-15.75,14.74-25.25,19.74-11.81,6.61-27.36,7.22-38.85-.42-4.4-2.53-6.98-7.01-10.14-10.78-4.85,4-9.58,8.63-15.75,10.47-5.82,1.81-12.79-.63-15.94-5.9-2.85-4.25-2.19-9.95-.27-14.42,3.08-5.29,7.06-9.98,10.98-14.66-2.82-.26-5.64-.51-8.44-.74-8.31,12.39-17.53,24.79-30.54,32.59-6.65,4.1-15.56,6.21-22.74,2.25-4.05-1.96-6.51-5.89-8.76-9.59-5.25,5.07-11.39,11.02-19.24,10.65-5.58-.37-7.83-6.12-11.86-9.05-4.88,3.74-10.4,8.5-16.99,7.53-5.03-.73-7.51-5.56-10.79-8.82-5.41,4.25-11.08,9.39-18.31,9.73-4.89-.58-7.21-5.3-9.76-8.87-4.44,3.17-8.71,6.74-13.89,8.63-5.78,2.32-12.88,2.08-17.97-1.74-4.1-3.17-5.97-8.54-5.89-13.59-.21-7.6,2.62-15.11,7.42-20.95,5.78-7.29,13.65-13.1,22.7-15.52,3.25-.93,7.36-.56,9.35,2.52,3.1,4.62,1.28,10.91-1.79,15.09-6.36,8.43-16.63,12.04-25.55,16.98,1.27,3.49,3.73,6.76,7.46,7.8,8.69,2.55,18.13-3.36,21.39-11.45,8.08-20.59,16.41-41.08,24.12-61.82-22.82-1.32-45.69-.88-68.54-1.01-16.69,0-33.38.16-50.06.27-11.53.38-23.75,1.03-33.81,7.32-10.57,6.04-17.33,16.66-22.63,27.29-7.93,14.19-14.34,29.21-23.04,42.97-6.18,9.78-12.8,19.54-21.86,26.91-1.07-6.79,3.62-12.65,3.01-19.38.46-13.23-.76-26.55-4.24-39.34-2-8.63-4.07-17.55-8.76-25.15-4.59-4.8-7.87-11.81-14.76-13.64-4.05-.23-8.87-.09-11.6,3.41-4.28,3.84-5.42,9.91-9.54,13.81-.53-9.06,4.96-16.98,11.25-22.93,8.01-7.33,20.27-10.06,30.29-5.4,8.8,7.51,13.37,18.69,16.17,29.65,3.8,16.91,3.28,34.5.97,51.58-.28,3.31-2.14,6.11-3.35,9.13,3.07-4.35,4.77-9.64,8.73-13.33,3.03-2.87,4.43-6.89,6.36-10.49,8.58-16.27,14.47-33.97,24.8-49.3,5.96-8.12,14.03-14.79,23.3-18.78,10.44-5.02,22.22-6.37,33.68-6.06,41.05-.06,82.1-.25,123.15-.19,1.53-3.12,2.56-6.5,4.42-9.44,2.88-2.79,6.14-5.17,9-7.99Zm-63.39,69.71c-6.14,5.06-10.78,12.14-12.03,20.07,7.19-3.6,13.87-9.35,16.16-17.33-1.39-.92-2.76-1.83-4.13-2.74Zm113.91,19.68c5.13-2.49,9.88-6.03,13.16-10.76,2.14-2.97,3.35-6.98,1.31-10.33-7.95,4.16-12.74,12.52-14.47,21.09Zm-47.03-17.01c-4.98,4.33-8.69,10.21-10.31,16.61-.62,3.77-.88,8.65,2.61,11.18,2.55,2.21,6.26,1.05,8.8-.57,2.76-1.73,3.43-5.12,4.32-8.01,1.71-6.75,6.05-12.48,7.5-19.33-3.99-1.75-9.29-2.96-12.92.12Zm138.8,16.47c6.33-2.93,12.67-7.65,14.89-14.53.88-1.96-1.31-2.91-2.37-4.1-5.86,4.84-10.61,11.19-12.52,18.63Z"/>
    <path class="cls-1" d="m684.37,626c11.76-1.26,23.56-4.04,35.44-2.44,5.28.46,9.73,4.08,12.77,8.21,1.99,4.11,1.92,9.27.15,13.46-3.89,6.21-8.88,11.74-14.92,15.9-2.59.98-5.39,1.18-8.12,1.53.13,2.46.43,4.95,1.28,7.3,3.11.56,6.63.99,8.82,3.55,2.19,2.12,2.96,5.13,3.61,8,.36-.07,1.07-.23,1.43-.31.08,1.22.18,2.45.29,3.69,1.02,2.34.57,4.77-.92,6.8-.05.6-.16,1.78-.21,2.37-3.47,5.82-8.66,10.43-14.47,13.84-6.11,3.35-11.9,7.44-18.69,9.35-8.95,2.63-18.12,4.56-27.31,6.05-10.02.16-20.3,2.48-30.13-.44-2.73-1.11-6.38-2.64-6.83-5.92,1.87-2.89,5.57-4.56,8.85-5.38,4.87.59,9.72.56,14.61.24.04-1.72.11-3.42.18-5.13,2.87-.81,5.24-2.5,6.44-5.3.82-1.89,1.57-3.82,2.23-5.77.42-.15,1.27-.45,1.69-.6,1.7-4.2,4.26-8.04,5.45-12.44.5-1.74.8-3.69,2.48-4.73,2.09-5.83,5.27-11.2,7.89-16.81,3.24-5.15,5.31-11.09,9.71-15.44,1.73-1.63,1.98-4.04,2.3-6.25,2.86-.68,5.78-1.01,8.72-1.07.02-.52.06-1.57.08-2.09-4.55-1.16-9.17.02-13.74.27-5.9.48-11.37,2.95-17.08,4.32-3.6,1.18-7.57,1.95-10.57,4.4-2.11,2.92-3.14,6.46-4.34,9.82-.92-.53-1.83-1.06-2.72-1.58-1.01-.04-2-.06-2.98-.07.13.51.4,1.53.53,2.05-1.24.06-2.48.12-3.71.2-.3-5.09,3.62-8.65,5.78-12.84,2.83-5.34,7.64-9.7,13.47-11.49,7.4-2.2,14.83-4.47,22.54-5.25Zm20.87,5.38c-1.79,1.55-3.62,3.06-5.49,4.51.42,2.56,1.05,5.08,1.59,7.63-.92.4-1.84.82-2.75,1.24-2.89,4.58-5.64,9.33-9.52,13.17.45,1.58.9,3.15,1.36,4.75,3.64-.65,7.32-1.13,10.9-2.09,6.32-2.93,12.86-5.94,17.51-11.32,2.01-3.6,2.35-7.84,3.15-11.81-1.99-2.09-4.01-4.15-6.06-6.16-3.57-.03-7.13-.06-10.69.08Zm-37.78,67.98c-.46.09-1.38.26-1.84.35-1.86,3.08-3.65,6.21-5.13,9.5-2.27.36-4.54.74-6.81,1.1.11.9.22,1.82.34,2.74,4.48.47,8.96,1.34,13.48,1.08,4.77-.49,9.25-2.34,13.87-3.55,9.86-2.37,18.9-7.6,26.52-14.23,2.17-5.44,3.43-11.92-.09-17.11-6.33-7.03-16.12-9.5-25.29-8.85-4.14,10.09-9.81,19.44-15.05,28.97Z"/>
    <path class="cls-1" d="m776.88,668.15c3.47-2.42,7.35.47,10.7,1.66-1.14.26-2.3.51-3.43.78-.04,1.21-.08,2.43-.11,3.66-1.36,2.06-2.6,4.21-3.74,6.41-.49,2.63-1.36,5.17-2.57,7.55-3.2,6.13-4.93,12.87-7.63,19.21-1.78,5.12-4.76,9.71-6.53,14.83-1.45,1.9-2.79,3.87-4.02,5.91-2.5,4.37-7.24,6.82-9.64,11.27-5.59,6.47-13.38,10.62-21.17,13.88-5.83,3.22-12.73,3.33-19.21,3.05-4.47-.15-9.04-2.13-11.59-5.89-1.47-2.8-1.11-6.07-.93-9.11,1.98-.04,3.97-.05,5.96-.04,0,.8-.04,2.4-.05,3.2,4.01,3.39,9.22,5.17,14.36,5.93,4.3-1.87,9.16-2.22,13.23-4.64,3.9-2.31,7.44-5.17,10.91-8.08,2.47-2.03,2.93-5.51,5.12-7.78,4.44-4.19,6.79-10.03,8.88-15.64.41.06,1.22.19,1.63.26.03-2.99.02-5.97-.03-8.95-1.09-.53-2.17-1.06-3.24-1.58.07-1.82.06-3.65.35-5.44,1.92-2.97,5.96-4.08,7.35-7.47,1.05-2.59,2.02-5.24,3.81-7.43,4.04-5.05,5.61-12.22,11.59-15.55Z"/>
    <path class="cls-1" d="m736.74,672.53c2.7-1.99,5.38-4.23,8.7-5.08,3.64-.83,7.25.57,10.78,1.32-.27.98-.55,1.96-.79,2.96-.57,3.85-3.72,6.55-4.84,10.21-1.54,4.4-2.71,9.19-6.34,12.42-.66,3.32-1.31,6.65-1.56,10.04,2.75.72,5.58,1.01,8.42,1.21-.01,2.17-.02,4.35-.02,6.53-2.57.41-5.24.56-7.64,1.62-3.12,1.82-5.55,4.96-9.29,5.58-3.81.97-7.58-.53-10.89-2.3.38-.2,1.14-.59,1.52-.79,1.61-5.73,4.16-11.14,5.58-16.93.64.03,1.94.08,2.58.1.87-4.17,1.26-8.42,2.15-12.59,2.97-.52.79-3.51.92-5.26l2.79,2.01c-.41-1.22-.81-2.43-1.21-3.63l1.66.2c-.79-.65-1.59-1.27-2.4-1.87-.07-1.92-.11-3.84-.12-5.75Z"/>
    <path class="cls-1" d="m1121.82,675.16c3.28.03,4.34,4.05,3.86,6.73-.31,7.21-7.37,11.49-13.4,13.82.7,6.67.5,13.89-3.15,19.76-4.09,6.81-10.41,12.03-17.46,15.55-2.14,1.3-5.63,2.55-5.1,5.68,2.47,2.56,6.14,3.31,9.22,4.92,8.35,3.87,14.72,12.89,13.73,22.33-.5,7.9-5.93,14.29-11.36,19.57-10.83,10.1-24.74,17.73-39.74,18.63-19.09,1.3-38.32-2.04-56.03-9.2-6.47-2.77-13.21-5.05-19.24-8.73,5.22-.14,10.33,1.07,15.53,1.38,8,.33,15.24,4.05,22.77,6.38,13.13,4.38,27.16,5.83,40.96,5.2,9.67-1,19.75-3.66,27.1-10.37,6.07-5.15,9.26-13.12,9.7-20.94.59-4.53-2.78-8.13-5.58-11.22-5.92-4.86-14-5.71-20.25-9.99.12-4.69,2.78-9.1,5.6-12.76-6.08-2.35-11.84-7.09-12.79-13.9-1.38-6.07,3.82-10.87,4.7-16.59-1.07,1.88-1.97,3.84-2.69,5.88l-.88-3.12c-4.63.97-9.17,2.49-13.95,2.48-4.25,8.64-8.56,17.62-15.88,24.12-4.25,3.86-10.05,6.55-15.88,5.79-3.45-.91-6.99-2.77-8.74-6.01-1.53-2.67-2.2-5.69-2.97-8.62.31-.49.93-1.49,1.24-1.98-.3-13.15,8.31-25.65,20.05-31.2,3.18-1.33,6.6-2.1,9.57-3.94,3,1.44,6.99-.44,9.38,2.48,2.71,3.33,1.55,8.12,3.05,11.98,1.35.27,2.72.4,4.11.6-.54,1.23-1.06,2.48-1.56,3.74,7.51-.85,15.07-3.61,20.7-8.78,2.82-2.49,6.11-4.34,9.28-6.35-4.26,3.7-6.39,9-8.61,14.03-2.38,5.52-3.63,12.04-1.27,17.79.59-5.08-.19-10.37,1.57-15.27,2.09-5.97,5.47-11.79,10.89-15.29,4.4-2.75,9.61-4.19,14.78-4.29,3.28,1.16,6.32,2.92,9.66,3.97,2.7-2.39,6.44-4.61,6.89-8.53.42-2,.15-4.54,2.19-5.73Zm-99.59,36.73c-.73,4.07.46,8.89,4.15,11.18,3.54,1.76,7.56.37,11.3.29-4.06,1.32-8.4.76-12.55,1.5,3.45,2.56,8.42,2.34,12.3.95,3.71-3.67,5.82-8.91,6.6-14.02.89-4.6-2.96-7.79-5.28-11.2-2.27-2.85-2.83-6.53-3.86-9.91-7.31,4.58-11.38,12.9-12.66,21.21Zm65.46-18.95c-6.37,5.92-10.02,15.1-8.74,23.81.72,5.23,5.74,8.16,9.76,10.8,3.98-.03,7.55-2.62,9.56-5.94,3.67-5.83,3.95-13.11,2.96-19.74-1.53-5.61-7.27-11.8-13.54-8.93Z"/>
    <path class="cls-1" d="m948.76,686.66c.32-.65.95-1.96,1.27-2.61,2.97,3.15,4.62,7.81,2.77,11.97-4.09,9.61-13.59,15.57-22.98,19.2-1.58.93-4.24,1.23-4.41,3.44,1.71,3.59,4.95,6.11,8.63,7.46.04.61.12,1.84.16,2.45,5.18.36,10.43-1.08,14.41-4.49,3.81-2.74,6.29-6.85,9.96-9.75-1.91,4.88-5.7,8.66-9.36,12.26-5.21,4.97-11.38,9.58-18.72,10.54-5.8.69-12.32-1.78-15.35-6.95-1.64-3.82-2.75-8.14-1.9-12.29,1.3-6.82,3.02-14.01,8.23-19,7.19-7.07,16.88-12.84,27.29-12.23Zm-15.25,8.26c-4.83,4.64-7.52,11.17-8.43,17.74,4.41-2.94,9.06-5.64,12.83-9.41,2.72-2.64,3.17-6.59,3.34-10.17-2.66-.01-5.75-.33-7.74,1.84Z"/>
    <path class="cls-1" d="m1390.87,728.21c2.84-1.69,5.7-3.37,8.77-4.64-2.04,2.91-5.56,3.74-8.77,4.64Z"/>
    <path class="cls-1" d="m1038.52,803.86c7.54-1.28,15.25-1.01,22.81,0h-22.81Z"/>
  </g>
</svg>